# xmcd
# 
# Track frame offsets:
#     183
#     14543
#     29603
#     43790
#     56598
#     70680
#     86408
#     98598
#     113055
#     126295
#     142735
#     154680
#     169118
#     183268
#     197505
#     212208
# 
# Disc length: 2987
# 
# Revision: 4
# Processed by: cddbd v1.5.2PL0 Copyright (c) Steve Scherf et al.
# Submitted via: fre:ac v1.0.27
# 
DISCID=d30ba910
DTITLE=Artie Shaw - Begin the Beguine
DYEAR=0
DGENRE=Jazz
TTITLE0=Begin the Beguine
TTITLE1=Yerterdays
TTITLE2=Lady Be Good
TTITLE3=Nightmare
TTITLE4=Indian Love Call
TTITLE5=Jungle Drums
TTITLE6=Rosalie
TTITLE7=The Man I Love
TTITLE8=I Didn't Know What Time It Was
TTITLE9=I Surrender Dear
TTITLE10=Diga Diga Doo
TTITLE11=Deep Purple
TTITLE12=Carioca
TTITLE13=The Donkey Serenade
TTITLE14=All The Things You Are
TTITLE15=Serenade To A Savage
EXTD=
EXTT0=
EXTT1=
EXTT2=
EXTT3=
EXTT4=
EXTT5=
EXTT6=
EXTT7=
EXTT8=
EXTT9=
EXTT10=
EXTT11=
EXTT12=
EXTT13=
EXTT14=
EXTT15=
PLAYORDER=
